<svg width="18" height="19" viewBox="0 0 18 19" fill="none" xmlns="http://www.w3.org/2000/svg">
<path d="M5.33341 11.7503C5.33341 10.7378 4.5126 9.91699 3.50008 9.91699C2.48756 9.91699 1.66675 10.7378 1.66675 11.7503V13.5837C1.66675 14.5962 2.48756 15.417 3.50008 15.417C4.5126 15.417 5.33341 14.5962 5.33341 13.5837V11.7503Z" stroke="#2A2A2A" stroke-width="1.5" stroke-linecap="round" stroke-linejoin="round"/>
<path d="M16.3334 11.7503C16.3334 10.7378 15.5126 9.91699 14.5001 9.91699C13.4876 9.91699 12.6667 10.7378 12.6667 11.7503V13.5837C12.6667 14.5962 13.4876 15.417 14.5001 15.417C15.5126 15.417 16.3334 14.5962 16.3334 13.5837V11.7503Z" stroke="#2A2A2A" stroke-width="1.5" stroke-linecap="round" stroke-linejoin="round"/>
<path d="M1.66675 11.7503V9.00033C1.66675 7.0554 2.43937 5.19014 3.81463 3.81488C5.1899 2.43961 7.05516 1.66699 9.00008 1.66699C10.945 1.66699 12.8103 2.43961 14.1855 3.81488C15.5608 5.19014 16.3334 7.0554 16.3334 9.00033V11.7503M14.5001 15.417C14.5001 16.1463 13.9206 16.8458 12.8892 17.3615C11.8577 17.8773 10.4588 18.167 9.00008 18.167" stroke="#2A2A2A" stroke-width="1.5" stroke-linecap="round" stroke-linejoin="round"/>
</svg>
