<svg width="22" height="22" viewBox="0 0 22 22" fill="none" xmlns="http://www.w3.org/2000/svg">
<path d="M11.1466 9.96384C11.0549 9.95467 10.9449 9.95467 10.8441 9.96384C8.66243 9.89051 6.92993 8.10301 6.92993 5.90301C6.92993 3.65717 8.74493 1.83301 10.9999 1.83301C13.2458 1.83301 15.0699 3.65717 15.0699 5.90301C15.0608 8.10301 13.3283 9.89051 11.1466 9.96384Z" stroke="#2A2A2A" stroke-width="1.5" stroke-linecap="round" stroke-linejoin="round"/>
<path d="M6.56341 13.347C4.34507 14.832 4.34507 17.252 6.56341 18.7278C9.08424 20.4145 13.2184 20.4145 15.7392 18.7278C17.9576 17.2428 17.9576 14.8228 15.7392 13.347C13.2276 11.6695 9.09341 11.6695 6.56341 13.347Z" stroke="#2A2A2A" stroke-width="1.5" stroke-linecap="round" stroke-linejoin="round"/>
</svg>
